<svg width="112" height="78" viewBox="0 0 112 78" fill="none" xmlns="http://www.w3.org/2000/svg">
<path d="M32.06 78C21.5899 78 13.611 74.466 8.1233 67.398C2.70777 60.3301 0 50.4494 0 37.7559C0 25.0624 2.92439 15.6144 8.77316 9.41193C14.6219 3.13731 22.6008 0 32.7098 0C42.891 0 50.8699 3.10125 56.6465 9.30375C62.4953 15.5062 65.4196 25.387 65.4196 38.9459C65.4196 52.5048 62.4953 62.4216 56.6465 68.6963C50.7977 74.8987 42.6022 78 32.06 78ZM22.2037 34.9431V44.5714C22.2037 51.5673 22.2398 56.5076 22.312 59.3925C22.4564 62.2774 22.8535 65.2705 23.5034 68.3717C24.1533 71.473 25.2003 73.4924 26.6444 74.43C28.0886 75.2954 29.7854 75.7281 31.735 75.7281C33.6846 75.7281 35.1288 75.62 36.0675 75.4036C37.0784 75.1872 37.9448 74.7545 38.6669 74.1054C39.4612 73.3842 40.1111 72.699 40.6165 72.0499C41.122 71.3287 41.5191 70.2469 41.8079 68.8044C42.169 67.362 42.4578 66.0277 42.6744 64.8017C42.891 63.5756 43.0354 61.7725 43.1076 59.3925C43.2521 54.7767 43.3243 50.1248 43.3243 45.4369V35.9168C43.3243 21.7809 42.7827 12.6574 41.6996 8.54646C40.6887 4.36338 37.7282 2.27184 32.8181 2.27184C27.908 2.27184 24.9115 4.39944 23.8283 8.65465C22.7452 12.9098 22.2037 21.6727 22.2037 34.9431Z" fill="#494949" fill-opacity="0.04"/>
<path d="M82.4312 4.00277L70.517 5.51734L70.3004 3.35368L94.7786 0H103.552V74.8627H112V76.9182H71.0586V74.8627H82.4312V4.00277Z" fill="#494949" fill-opacity="0.04"/>
</svg>
