<svg width="125" height="78" viewBox="0 0 125 78" fill="none" xmlns="http://www.w3.org/2000/svg">
<path d="M32.0052 78C21.553 78 13.5878 74.466 8.10942 67.3981C2.70314 60.3301 0 50.4494 0 37.7559C0 25.0624 2.91939 15.6144 8.75818 9.41193C14.597 3.13731 22.5622 0 32.6539 0C42.8178 0 50.783 3.10125 56.5497 9.30375C62.3885 15.5062 65.3079 25.387 65.3079 38.9459C65.3079 52.5049 62.3885 62.4216 56.5497 68.6963C50.7109 74.8988 42.5294 78 32.0052 78ZM22.1658 34.9431V44.5714C22.1658 51.5673 22.2018 56.5076 22.2739 59.3925C22.418 62.2774 22.8145 65.2705 23.4633 68.3717C24.112 71.473 25.1572 73.4924 26.5989 74.43C28.0406 75.2954 29.7346 75.7282 31.6808 75.7282C33.6271 75.7282 35.0688 75.62 36.0058 75.4036C37.015 75.1872 37.88 74.7545 38.6009 74.1054C39.3938 73.3842 40.0425 72.699 40.5471 72.0499C41.0517 71.3287 41.4482 70.2469 41.7365 68.8044C42.0969 67.362 42.3853 66.0277 42.6015 64.8017C42.8178 63.5756 42.9619 61.7725 43.034 59.3925C43.1782 54.7767 43.2503 50.1248 43.2503 45.4369V35.9168C43.2503 21.7809 42.7096 12.6574 41.6284 8.54646C40.6192 4.36338 37.6638 2.27184 32.7621 2.27184C27.8604 2.27184 24.8689 4.39944 23.7876 8.65464C22.7064 12.9098 22.1658 21.6727 22.1658 34.9431Z" fill="#494949" fill-opacity="0.04"/>
<path d="M72.3428 16.552C72.3428 11.7198 74.4332 7.75312 78.6141 4.65187C82.795 1.55063 89.0662 0 97.428 0C105.79 0 112.205 1.55063 116.674 4.65187C121.216 7.75312 123.486 12.405 123.486 18.6075C123.486 20.6269 123.306 22.466 122.946 24.1248C122.585 25.7115 121.756 27.4064 120.459 29.2094C119.233 30.9404 118.008 32.491 116.782 33.8613C115.629 35.2316 113.611 37.0347 110.727 39.2705C106.402 42.7323 101.861 46.1942 97.1036 49.656C92.3461 53.0458 89.5708 55.0291 88.7779 55.6061L82.1822 60.3662H108.132C113.106 60.3662 116.638 59.2843 118.729 57.1207C120.819 54.957 122.297 51.5673 123.162 46.9515H125L123.919 76.9182H73.0997V64.3689L84.0204 54.3079C91.445 47.5284 96.7071 41.5062 99.8067 36.2413C102.906 30.9043 104.456 25.0624 104.456 18.7157C104.456 12.2968 103.771 7.93343 102.402 5.62552C101.032 3.24549 98.7255 2.05548 95.4817 2.05548C92.2379 2.05548 89.9673 2.88488 88.6698 4.54369C87.3723 6.2025 86.7235 7.78918 86.7235 9.30375C86.7235 10.8183 86.9398 12.1526 87.3723 13.3065H90.6161C91.1927 14.8211 91.481 16.6602 91.481 18.8239C91.481 20.9154 90.58 22.7545 88.7779 24.3412C86.9758 25.8558 84.5971 26.613 81.6416 26.613C78.6862 26.613 76.3795 25.6755 74.7216 23.8003C73.1357 21.853 72.3428 19.4369 72.3428 16.552Z" fill="#494949" fill-opacity="0.04"/>
</svg>
