<svg width="125" height="78" viewBox="0 0 125 78" fill="none" xmlns="http://www.w3.org/2000/svg">
<path d="M31.4342 78C21.1685 78 13.3454 74.466 7.96474 67.3981C2.65491 60.3301 0 50.4494 0 37.7559C0 25.0624 2.86731 15.6144 8.60192 9.41193C14.3365 3.13731 22.1597 0 32.0714 0C42.0538 0 49.877 3.10125 55.5408 9.30375C61.2754 15.5062 64.1427 25.387 64.1427 38.9459C64.1427 52.5049 61.2754 62.4216 55.5408 68.6963C49.8062 74.8988 41.7707 78 31.4342 78ZM21.7703 34.9431V44.5714C21.7703 51.5673 21.8057 56.5076 21.8765 59.3925C22.0181 62.2774 22.4075 65.2705 23.0447 68.3717C23.6818 71.473 24.7084 73.4924 26.1244 74.43C27.5403 75.2954 29.2041 75.7282 31.1156 75.7282C33.0271 75.7282 34.4431 75.62 35.3635 75.4036C36.3546 75.1872 37.2042 74.7545 37.9122 74.1054C38.6909 73.3842 39.3281 72.699 39.8237 72.0499C40.3193 71.3287 40.7087 70.2469 40.9919 68.8044C41.3459 67.362 41.6291 66.0277 41.8414 64.8017C42.0538 63.5756 42.1954 61.7725 42.2662 59.3925C42.4078 54.7767 42.4786 50.1248 42.4786 45.4369V35.9168C42.4786 21.7809 41.9476 12.6574 40.8857 8.54646C39.8945 4.36338 36.9918 2.27184 32.1776 2.27184C27.3633 2.27184 24.4252 4.39944 23.3632 8.65464C22.3013 12.9098 21.7703 21.6727 21.7703 34.9431Z" fill="#494949" fill-opacity="0.04"/>
<path d="M71.7955 16.552C71.7955 11.792 73.9194 7.86131 78.1673 4.76005C82.4152 1.58669 88.7162 0 97.0703 0C113.212 0 121.283 5.73371 121.283 17.2011C121.283 21.889 119.372 25.7836 115.549 28.8849C111.796 31.914 106.38 34.0416 99.3004 35.2677V35.484C108.079 36.1331 114.557 38.2247 118.734 41.7587C122.911 45.2927 125 49.8724 125 55.4979C125 62.4216 122.239 67.9029 116.717 71.9418C111.265 75.9806 103.654 78 93.8844 78C90.0613 78 86.486 77.5673 83.1585 76.7018C79.9018 75.8363 76.9637 74.1415 74.3442 71.6172C71.7955 69.0208 70.5211 65.9556 70.5211 62.4216C70.5211 58.8877 71.3353 56.147 72.9637 54.1997C74.6628 52.2524 76.9637 51.2788 79.8665 51.2788C82.7692 51.2788 85.0701 52.0721 86.7692 53.6588C88.4684 55.1734 89.3179 57.0125 89.3179 59.1761C89.3179 61.2677 89.0348 63.0707 88.4684 64.5853H85.1763C84.7515 65.7392 84.5391 66.9293 84.5391 68.1553C84.5391 73.276 87.5126 75.8363 93.4596 75.8363C97.6367 75.8363 100.469 74.2136 101.955 70.9681C103.513 67.7226 104.292 63.0347 104.292 56.9043C104.292 50.7739 103.548 46.3384 102.062 43.5978C100.646 40.785 98.5216 38.6574 95.6897 37.215C93.141 37.792 90.0613 38.2607 86.4506 38.6214L86.132 36.2413C92.3622 35.5922 96.4331 34.0777 98.3447 31.6976C100.327 29.3176 101.318 25.0985 101.318 19.0402C101.318 12.9098 100.716 8.54647 99.5128 5.95007C98.38 3.28156 96.4331 1.9473 93.672 1.9473C90.9109 1.9473 88.9286 2.81276 87.725 4.54369C86.5922 6.2025 86.0258 7.78918 86.0258 9.30375C86.0258 10.8183 86.2382 12.1526 86.663 13.3065H89.7427C90.3091 14.8211 90.5923 16.6602 90.5923 18.8239C90.5923 20.9154 89.7073 22.7545 87.9374 24.3412C86.1675 25.8558 83.8311 26.613 80.9284 26.613C78.0257 26.613 75.7602 25.6755 74.1318 23.8003C72.5743 21.853 71.7955 19.4369 71.7955 16.552Z" fill="#494949" fill-opacity="0.04"/>
</svg>
