<svg width="25" height="24" viewBox="0 0 25 24" fill="none" xmlns="http://www.w3.org/2000/svg">
<path d="M12.5 0C5.8725 0 0.5 5.3725 0.5 12C0.5 18.6275 5.8725 24 12.5 24C19.1275 24 24.5 18.6275 24.5 12C24.5 5.3725 19.1275 0 12.5 0ZM9.5625 16.9737H7.1325V9.15375H9.5625V16.9737ZM8.3325 8.19375C7.565 8.19375 7.06875 7.65 7.06875 6.9775C7.06875 6.29125 7.58 5.76375 8.36375 5.76375C9.1475 5.76375 9.6275 6.29125 9.6425 6.9775C9.6425 7.65 9.1475 8.19375 8.3325 8.19375ZM18.4375 16.9737H16.0075V12.64C16.0075 11.6312 15.655 10.9462 14.7763 10.9462C14.105 10.9462 13.7063 11.41 13.53 11.8562C13.465 12.015 13.4488 12.24 13.4488 12.4637V16.9725H11.0175V11.6475C11.0175 10.6713 10.9862 9.855 10.9537 9.1525H13.065L13.1763 10.2387H13.225C13.545 9.72875 14.3288 8.97625 15.64 8.97625C17.2388 8.97625 18.4375 10.0475 18.4375 12.35V16.9737Z" fill="white" fill-opacity="0.6"/>
</svg>
