<svg width="60" height="59" viewBox="0 0 60 59" fill="none" xmlns="http://www.w3.org/2000/svg">
<path d="M36.2741 52.5169C32.0274 53.9448 27.432 53.9562 23.1783 52.5492C23.0158 52.4939 22.8439 52.4714 22.6726 52.4828C22.5013 52.4942 22.334 52.5394 22.1803 52.6158C22.0265 52.6922 21.8894 52.7982 21.7768 52.9278C21.6643 53.0574 21.5784 53.208 21.5243 53.3709C21.4702 53.5338 21.4488 53.7058 21.4614 53.877C21.474 54.0482 21.5204 54.2152 21.5978 54.3685C21.6753 54.5217 21.7823 54.658 21.9127 54.7697C22.043 54.8814 22.1942 54.9662 22.3575 55.0192C27.1472 56.6043 32.322 56.5919 37.104 54.9839C37.2665 54.9298 37.4167 54.8442 37.546 54.7319C37.6753 54.6197 37.7812 54.483 37.8576 54.3297C37.934 54.1765 37.9794 54.0096 37.9912 53.8388C38.003 53.668 37.981 53.4965 37.9264 53.3342C37.8718 53.1718 37.7857 53.0219 37.673 52.8929C37.5604 52.764 37.4234 52.6585 37.2699 52.5826C37.1164 52.5067 36.9494 52.4618 36.7785 52.4505C36.6076 52.4392 36.4362 52.4618 36.2741 52.5169Z" fill="#A0CBE2"/>
<path d="M29.6576 10.8119C30.7149 10.8112 31.7482 10.4971 32.6269 9.90929C33.5057 9.32149 34.1904 8.48638 34.5947 7.5095C34.999 6.53262 35.1045 5.45782 34.8981 4.42095C34.6917 3.38408 34.1825 2.43168 33.4349 1.68413C32.6873 0.936568 31.7349 0.427408 30.698 0.221C29.6612 0.0145919 28.5864 0.1202 27.6095 0.524478C26.6326 0.928755 25.7975 1.61355 25.2098 2.49232C24.622 3.37109 24.3079 4.40438 24.3073 5.4616C24.3089 6.88011 24.8731 8.24005 25.8761 9.24307C26.8792 10.2461 28.2391 10.8103 29.6576 10.8119ZM29.6576 2.72094C30.2004 2.72164 30.7307 2.88325 31.1816 3.18534C31.6324 3.48743 31.9836 3.91644 32.1906 4.4181C32.3977 4.91977 32.4513 5.47157 32.3448 6.00372C32.2382 6.53587 31.9763 7.02448 31.592 7.40775C31.2078 7.79103 30.7185 8.05176 30.1861 8.15697C29.6537 8.26218 29.102 8.20715 28.6009 7.99884C28.0997 7.79053 27.6716 7.43829 27.3707 6.98667C27.0697 6.53504 26.9094 6.00432 26.9101 5.4616C26.9118 4.73406 27.202 4.0369 27.7171 3.52309C28.2322 3.00929 28.9301 2.7208 29.6576 2.72094Z" fill="#A0CBE2"/>
<path d="M31.5537 11.5693H27.8018C26.8338 11.5654 25.8747 11.7531 24.9796 12.1216C24.0845 12.4901 23.2713 13.0321 22.5867 13.7164C21.9021 14.4008 21.3598 15.2138 20.991 16.1087C20.6221 17.0037 20.4341 17.9627 20.4377 18.9307V20.0036C20.4377 20.7224 20.9694 21.33 21.6881 21.33H37.6674C38.3861 21.33 38.9178 20.7224 38.9178 20.0036V18.9307C38.9214 17.9627 38.7334 17.0037 38.3645 16.1087C37.9957 15.2138 37.4534 14.4008 36.7688 13.7164C36.0842 13.0321 35.271 12.4901 34.3759 12.1216C33.4808 11.7531 32.5217 11.5654 31.5537 11.5693ZM22.9948 18.7271C23.0468 17.492 23.5777 16.3256 24.475 15.4753C25.3724 14.625 26.5656 14.1576 27.8018 14.1722H31.5537C32.7899 14.1576 33.9831 14.625 34.8805 15.4753C35.7778 16.3256 36.3088 17.492 36.3607 18.7271H22.9948Z" fill="#A0CBE2"/>
<path d="M7.76021 34.2815C8.10536 34.2815 8.43638 34.1443 8.68045 33.9003C8.92451 33.6562 9.06163 33.3252 9.06163 32.98C9.05562 29.8911 9.7466 26.8405 11.0831 24.0556C12.4196 21.2707 14.3671 18.8232 16.7807 16.8954C16.9154 16.7889 17.0276 16.6568 17.111 16.5067C17.1943 16.3566 17.2472 16.1915 17.2665 16.0209C17.2857 15.8503 17.271 15.6775 17.2233 15.5126C17.1755 15.3477 17.0956 15.1939 16.9881 15.06C16.8806 14.9261 16.7477 14.8148 16.597 14.7326C16.4463 14.6503 16.2808 14.5986 16.1101 14.5806C15.9393 14.5625 15.7667 14.5784 15.6021 14.6274C15.4376 14.6764 15.2843 14.7574 15.1512 14.8658C12.4332 17.037 10.24 19.7933 8.73499 22.9296C7.22997 26.0659 6.45192 29.5013 6.45879 32.98C6.45879 33.3252 6.5959 33.6562 6.83996 33.9003C7.08403 34.1443 7.41505 34.2815 7.76021 34.2815Z" fill="#A0CBE2"/>
<path d="M41.5719 16.1399C44.2646 18.0466 46.4616 20.5705 47.9791 23.5003C49.4965 26.4301 50.2903 29.6808 50.294 32.9802C50.294 33.3254 50.4311 33.6564 50.6752 33.9005C50.9192 34.1446 51.2502 34.2817 51.5954 34.2817C51.9406 34.2817 52.2716 34.1446 52.5156 33.9005C52.7597 33.6564 52.8968 33.3254 52.8968 32.9802C52.8928 29.2646 51.999 25.6039 50.2903 22.3045C48.5816 19.0051 46.1076 16.1628 43.0753 14.0154C42.7934 13.8184 42.4451 13.7409 42.1063 13.7999C41.7675 13.859 41.4659 14.0496 41.2673 14.3304C41.0686 14.6111 40.9892 14.959 41.0463 15.2981C41.1033 15.6372 41.2923 15.9399 41.5719 16.1401V16.1399Z" fill="#A0CBE2"/>
<path d="M9.4135 47.9259C10.4707 47.9252 11.504 47.6112 12.3828 47.0234C13.2616 46.4356 13.9464 45.6005 14.3506 44.6236C14.7549 43.6467 14.8605 42.5719 14.6541 41.5351C14.4477 40.4982 13.9385 39.5458 13.1909 38.7982C12.4434 38.0506 11.4909 37.5414 10.4541 37.335C9.41719 37.1286 8.34239 37.2342 7.36551 37.6385C6.38864 38.0428 5.55354 38.7276 4.96575 39.6063C4.37797 40.4851 4.0639 41.5184 4.06323 42.5756C4.06482 43.9941 4.62901 45.3541 5.63204 46.3571C6.63507 47.3601 7.99501 47.9243 9.4135 47.9259ZM9.4135 39.8351C9.95623 39.8358 10.4866 39.9974 10.9375 40.2994C11.3883 40.6015 11.7395 41.0305 11.9466 41.5322C12.1537 42.0339 12.2073 42.5857 12.1008 43.1178C11.9942 43.65 11.7323 44.1386 11.348 44.5219C10.9638 44.9052 10.4745 45.1659 9.94205 45.2711C9.40962 45.3763 8.85795 45.3213 8.3568 45.113C7.85565 44.9046 7.42753 44.5524 7.12658 44.1007C6.82564 43.6491 6.66538 43.1184 6.66607 42.5756C6.6678 41.8481 6.95803 41.151 7.4731 40.6372C7.98816 40.1235 8.686 39.835 9.4135 39.8351Z" fill="#A0CBE2"/>
<path d="M11.3097 48.6598H7.55788C5.59433 48.6549 3.70926 49.4302 2.31733 50.8151C0.925397 52.2001 0.140619 54.0812 0.13562 56.0448V57.1177C0.137169 57.4637 0.27572 57.7951 0.520958 58.0392C0.766196 58.2833 1.09815 58.4204 1.4442 58.4204H17.4234C17.7709 58.4209 18.1046 58.2844 18.3521 58.0406C18.5997 57.7967 18.7412 57.4651 18.7459 57.1177V56.0448C18.7459 51.956 15.3984 48.6598 11.3097 48.6598ZM2.75147 55.8176C2.80339 54.5824 3.33431 53.416 4.23166 52.5657C5.12901 51.7154 6.32225 51.248 7.5584 51.2626H11.3103C12.5464 51.248 13.7396 51.7155 14.6369 52.5658C15.5342 53.4161 16.0651 54.5824 16.1171 55.8176H2.75147Z" fill="#A0CBE2"/>
<path d="M44.5513 42.5756C44.5499 43.6341 44.8625 44.6692 45.4496 45.5499C46.0366 46.4307 46.8717 47.1175 47.8492 47.5235C48.8267 47.9295 49.9027 48.0365 50.941 47.8308C51.9793 47.6252 52.9333 47.1162 53.6822 46.3682C54.4311 45.6203 54.9414 44.667 55.1484 43.629C55.3555 42.591 55.25 41.5149 54.8453 40.5368C54.4406 39.5588 53.7548 38.7228 52.8749 38.1345C51.9949 37.5463 50.9603 37.2323 49.9018 37.2322C48.4845 37.2337 47.1255 37.797 46.1226 38.7985C45.1197 39.8001 44.5547 41.1583 44.5513 42.5756ZM52.649 42.5756C52.6503 43.1193 52.4903 43.6512 52.1893 44.1039C51.8882 44.5566 51.4596 44.9098 50.9577 45.1188C50.4557 45.3278 49.9031 45.3832 49.3697 45.278C48.8363 45.1727 48.3461 44.9116 47.9612 44.5276C47.5763 44.1436 47.3139 43.654 47.2074 43.1209C47.1008 42.5877 47.1549 42.035 47.3627 41.5325C47.5704 41.0301 47.9226 40.6006 48.3746 40.2985C48.8266 39.9963 49.3581 39.835 49.9018 39.8351C50.629 39.8359 51.3262 40.1247 51.841 40.6383C52.3559 41.1519 52.6463 41.8484 52.649 42.5756Z" fill="#A0CBE2"/>
<path d="M51.7978 48.6598H48.0459C43.9573 48.6598 40.6097 51.956 40.6097 56.0448V57.1177C40.6145 57.4651 40.756 57.7967 41.0035 58.0406C41.2511 58.2844 41.5848 58.4209 41.9322 58.4204H57.9115C58.2575 58.4204 58.5895 58.2833 58.8347 58.0392C59.08 57.7951 59.2185 57.4637 59.22 57.1177V56.0448C59.2151 54.0812 58.4303 52.2001 57.0383 50.8151C55.6464 49.4302 53.7613 48.6549 51.7978 48.6598ZM43.2386 55.8176C43.2905 54.5824 43.8214 53.416 44.7188 52.5657C45.6161 51.7154 46.8094 51.248 48.0455 51.2626H51.7974C53.0335 51.248 54.2267 51.7155 55.1241 52.5658C56.0214 53.4161 56.5523 54.5824 56.6042 55.8176H43.2386Z" fill="#A0CBE2"/>
</svg>
