<svg width="52" height="50" viewBox="0 0 52 50" fill="none" xmlns="http://www.w3.org/2000/svg">
<path d="M4.00504 39.8453C4.10555 39.8452 4.20578 39.8353 4.304 39.8157L18.4541 36.9927C18.7169 36.9403 18.9578 36.8198 19.1481 36.6457L42.1271 15.636L43.1157 14.7298C44.8443 13.1513 45.8239 11.0114 45.8417 8.7748C45.8595 6.5382 44.9142 4.38543 43.2109 2.78393C43.1827 2.75342 43.1534 2.72403 43.123 2.69576C41.38 1.10393 39.0194 0.210808 36.559 0.212282C34.0986 0.213756 31.7393 1.10971 29.9986 2.70362L29.0076 3.61215L6.08868 24.6754C5.8988 24.85 5.76748 25.0708 5.71025 25.3117L2.63057 38.2826C2.58588 38.4708 2.58776 38.6658 2.63605 38.8532C2.68435 39.0406 2.77784 39.2157 2.90965 39.3657C3.04146 39.5156 3.20825 39.6366 3.39776 39.7197C3.58726 39.8028 3.79468 39.8459 4.00475 39.8459L4.00504 39.8453ZM41.061 4.45327C41.0847 4.47905 41.1099 4.5038 41.1362 4.52777C41.7366 5.07739 42.2128 5.73016 42.5376 6.44872C42.8624 7.16727 43.0294 7.9375 43.029 8.71529C43.0286 9.49309 42.8609 10.2632 42.5354 10.9815C42.2099 11.6998 41.7331 12.3521 41.1321 12.9013L31.9915 4.52236C33.1923 3.42459 34.815 2.8024 36.5108 2.78948C38.2067 2.77656 39.8404 3.37394 41.061 4.45327ZM30.0045 6.34728L39.1426 14.724L18.1564 33.9116L9.07203 25.5842L30.0045 6.34728ZM7.91075 28.1658L15.3398 34.9758L5.84455 36.87L7.91075 28.1658Z" fill="#A0CBE2"/>
<path d="M50.5613 47.1719H1.43896C1.066 47.1719 0.708319 47.3077 0.444596 47.5494C0.180873 47.7912 0.0327148 48.1191 0.0327148 48.4609C0.0327148 48.8028 0.180873 49.1307 0.444596 49.3724C0.708319 49.6142 1.066 49.75 1.43896 49.75H50.5613C50.9342 49.75 51.2919 49.6142 51.5556 49.3724C51.8193 49.1307 51.9675 48.8028 51.9675 48.4609C51.9675 48.1191 51.8193 47.7912 51.5556 47.5494C51.2919 47.3077 50.9342 47.1719 50.5613 47.1719Z" fill="#A0CBE2"/>
</svg>
