<svg width="58" height="57" viewBox="0 0 58 57" fill="none" xmlns="http://www.w3.org/2000/svg">
<path d="M18.9403 44.2981C17.7726 44.2981 16.6311 44.6444 15.6602 45.2931C14.6893 45.9418 13.9325 46.8639 13.4857 47.9427C13.0388 49.0216 12.9219 50.2087 13.1497 51.3539C13.3775 52.4992 13.9398 53.5512 14.7655 54.3769C15.5912 55.2026 16.6432 55.7649 17.7884 55.9927C18.9337 56.2205 20.1208 56.1036 21.1996 55.6567C22.2784 55.2098 23.2005 54.4531 23.8493 53.4822C24.498 52.5113 24.8443 51.3698 24.8443 50.2021C24.8426 48.6368 24.2201 47.136 23.1132 46.0292C22.0063 44.9223 20.5056 44.2997 18.9403 44.2981ZM18.9403 53.5657C18.2748 53.5657 17.6243 53.3684 17.071 52.9987C16.5176 52.629 16.0864 52.1035 15.8317 51.4887C15.5771 50.8739 15.5104 50.1974 15.6403 49.5447C15.7701 48.892 16.0905 48.2925 16.5611 47.8219C17.0317 47.3514 17.6312 47.0309 18.2839 46.9011C18.9365 46.7713 19.613 46.8379 20.2279 47.0926C20.8427 47.3472 21.3682 47.7785 21.7379 48.3318C22.1076 48.8851 22.3049 49.5356 22.3049 50.2011C22.304 51.0932 21.9493 51.9485 21.3185 52.5793C20.6877 53.2101 19.8324 53.5649 18.9403 53.5657Z" fill="#A0CBE2"/>
<path d="M44.095 44.2981C42.9273 44.2981 41.7859 44.6444 40.815 45.2931C39.8441 45.9418 39.0873 46.8639 38.6405 47.9427C38.1936 49.0216 38.0767 50.2087 38.3045 51.3539C38.5323 52.4992 39.0946 53.5512 39.9203 54.3769C40.746 55.2026 41.798 55.7649 42.9432 55.9927C44.0885 56.2205 45.2756 56.1036 46.3544 55.6567C47.4332 55.2098 48.3553 54.4531 49.004 53.4822C49.6528 52.5113 49.999 51.3698 49.999 50.2021C49.9974 48.6368 49.3748 47.136 48.268 46.0292C47.1611 44.9223 45.6604 44.2997 44.095 44.2981ZM44.095 53.5657C43.4296 53.5657 42.7791 53.3684 42.2257 52.9987C41.6724 52.629 41.2412 52.1035 40.9865 51.4887C40.7319 50.8739 40.6652 50.1974 40.795 49.5447C40.9249 48.892 41.2453 48.2925 41.7159 47.8219C42.1864 47.3514 42.786 47.0309 43.4386 46.9011C44.0913 46.7713 44.7678 46.8379 45.3826 47.0926C45.9974 47.3472 46.5229 47.7785 46.8926 48.3318C47.2624 48.8851 47.4597 49.5356 47.4597 50.2011C47.4588 51.0932 47.104 51.9485 46.4732 52.5793C45.8424 53.2101 44.9871 53.5649 44.095 53.5657Z" fill="#A0CBE2"/>
<path d="M56.493 9.08162L13.3136 8.42952L12.1291 4.84001C11.7407 3.65901 10.9897 2.6306 9.9829 1.90114C8.97615 1.17168 7.76498 0.778317 6.52173 0.777039H2.06008C1.72334 0.777039 1.4004 0.910808 1.16229 1.14892C0.924175 1.38703 0.790405 1.70998 0.790405 2.04672C0.790405 2.38346 0.924175 2.7064 1.16229 2.94451C1.4004 3.18263 1.72334 3.3164 2.06008 3.31639H6.52173C7.23104 3.31835 7.9217 3.54377 8.49559 3.96063C9.06949 4.37748 9.49744 4.96457 9.71865 5.63851L11.2145 10.16L18.1163 31.0182L17.4942 32.5247C17.1248 33.4195 16.9822 34.3917 17.079 35.3549C17.1758 36.3181 17.509 37.2425 18.049 38.046C18.589 38.8494 19.319 39.507 20.1743 39.9604C21.0297 40.4138 21.9837 40.649 22.9517 40.6449H48.7286C49.0654 40.6449 49.3883 40.5112 49.6264 40.2731C49.8645 40.0349 49.9983 39.712 49.9983 39.3753C49.9983 39.0385 49.8645 38.7156 49.6264 38.4775C49.3883 38.2393 49.0654 38.1056 48.7286 38.1056H22.9517C22.4004 38.1094 21.8566 37.9767 21.369 37.7193C20.8814 37.4619 20.465 37.0878 20.1572 36.6303C19.8493 36.1729 19.6594 35.6464 19.6044 35.0977C19.5495 34.5491 19.6312 33.9954 19.8423 33.486L20.3304 32.3087L48.2294 29.452C49.7197 29.2984 51.1255 28.6862 52.2531 27.6998C53.3806 26.7133 54.1743 25.4012 54.5244 23.9446L57.7085 10.6462C57.7528 10.4613 57.7548 10.2687 57.7146 10.0828C57.6744 9.89688 57.593 9.72238 57.4763 9.57218C57.3596 9.42198 57.2106 9.29992 57.0404 9.21501C56.8702 9.1301 56.6831 9.08452 56.493 9.08162ZM52.0548 23.3547C51.8275 24.2998 51.3126 25.1511 50.581 25.7911C49.8494 26.4311 48.9373 26.8284 47.9704 26.9281L20.372 29.7562L14.1587 10.9819L54.8698 11.5969L52.0548 23.3547Z" fill="#A0CBE2"/>
</svg>
