<svg width="23" height="24" viewBox="0 0 23 24" fill="none" xmlns="http://www.w3.org/2000/svg">
<path d="M11.5 0.5C5.14865 0.5 0 5.64865 0 12C0 18.3514 5.14865 23.5 11.5 23.5C17.8514 23.5 23 18.3514 23 12C23 5.64865 17.8514 0.5 11.5 0.5ZM15.9227 13.4746C15.9227 13.4746 16.9397 14.4785 17.1901 14.9445C17.1973 14.9541 17.2009 14.9636 17.2033 14.9684C17.3051 15.1397 17.3291 15.2727 17.2787 15.3721C17.1949 15.5374 16.9074 15.6189 16.8092 15.6261H15.0123C14.8877 15.6261 14.6266 15.5938 14.3103 15.3757C14.0671 15.2056 13.8276 14.9265 13.594 14.6546C13.2454 14.2497 12.9435 13.8999 12.6392 13.8999C12.6006 13.8998 12.5622 13.9059 12.5254 13.9179C12.2954 13.9921 12.0007 14.3204 12.0007 15.1948C12.0007 15.468 11.7851 15.6249 11.633 15.6249H10.81C10.5297 15.6249 9.06943 15.5267 7.77568 14.1622C6.19203 12.4911 4.76651 9.13937 4.75453 9.10823C4.66469 8.89141 4.85036 8.77521 5.05281 8.77521H6.86766C7.10963 8.77521 7.1887 8.92255 7.2438 9.05312C7.30849 9.20526 7.54568 9.81021 7.935 10.4906C8.5663 11.5999 8.95323 12.0503 9.26349 12.0503C9.32167 12.0496 9.37881 12.0348 9.43 12.0072C9.8349 11.782 9.75943 10.3385 9.74146 10.039C9.74146 9.98271 9.74026 9.39333 9.53302 9.11062C9.38448 8.90578 9.13172 8.82792 8.97838 8.79917C9.04045 8.71353 9.12221 8.64409 9.21677 8.59672C9.49469 8.45776 9.99542 8.4374 10.4926 8.4374H10.7693C11.3083 8.44458 11.4473 8.47932 11.6426 8.52844C12.0379 8.62307 12.0463 8.87823 12.0115 9.75151C12.0007 9.99948 11.9899 10.2798 11.9899 10.6104C11.9899 10.6823 11.9864 10.759 11.9864 10.8404C11.9744 11.2848 11.96 11.7892 12.2739 11.9964C12.3148 12.0221 12.3621 12.0358 12.4104 12.0359C12.5194 12.0359 12.8477 12.0359 13.7365 10.511C14.0106 10.0202 14.2488 9.5101 14.4493 8.98484C14.4672 8.9537 14.5199 8.85786 14.5822 8.82073C14.6282 8.79729 14.6792 8.78537 14.7308 8.78599H16.8643C17.0967 8.78599 17.256 8.82073 17.2859 8.91057C17.3386 9.05312 17.2764 9.48797 16.3024 10.8069L15.8676 11.3807C14.9847 12.5379 14.9847 12.5966 15.9227 13.4746Z" fill="white" fill-opacity="0.6"/>
</svg>
