<svg width="20" height="20" viewBox="0 0 20 20" fill="none" xmlns="http://www.w3.org/2000/svg">
<path d="M10 0.399902C4.69802 0.399902 0.400024 4.6979 0.400024 9.9999C0.400024 15.3019 4.69802 19.5999 10 19.5999C15.302 19.5999 19.6 15.3019 19.6 9.9999C19.6 4.6979 15.302 0.399902 10 0.399902ZM13.692 11.2309C13.692 11.2309 14.541 12.0689 14.75 12.4579C14.756 12.4659 14.759 12.4739 14.761 12.4779C14.846 12.6209 14.866 12.7319 14.824 12.8149C14.754 12.9529 14.514 13.0209 14.432 13.0269H12.932C12.828 13.0269 12.61 12.9999 12.346 12.8179C12.143 12.6759 11.943 12.4429 11.748 12.2159C11.457 11.8779 11.205 11.5859 10.951 11.5859C10.9188 11.5858 10.8867 11.5909 10.856 11.6009C10.664 11.6629 10.418 11.9369 10.418 12.6669C10.418 12.8949 10.238 13.0259 10.111 13.0259H9.42402C9.19002 13.0259 7.97102 12.9439 6.89102 11.8049C5.56902 10.4099 4.37902 7.6119 4.36902 7.5859C4.29402 7.4049 4.44902 7.3079 4.61802 7.3079H6.13302C6.33502 7.3079 6.40102 7.4309 6.44702 7.5399C6.50102 7.6669 6.69902 8.1719 7.02402 8.7399C7.55102 9.6659 7.87402 10.0419 8.13302 10.0419C8.18159 10.0413 8.22929 10.029 8.27202 10.0059C8.61002 9.8179 8.54702 8.6129 8.53202 8.3629C8.53202 8.3159 8.53102 7.8239 8.35802 7.5879C8.23402 7.4169 8.02302 7.3519 7.89502 7.3279C7.94683 7.25641 8.01509 7.19845 8.09402 7.1589C8.32602 7.0429 8.74403 7.0259 9.15903 7.0259H9.39003C9.84002 7.0319 9.95603 7.0609 10.119 7.1019C10.449 7.1809 10.456 7.3939 10.427 8.1229C10.418 8.3299 10.409 8.5639 10.409 8.8399C10.409 8.8999 10.406 8.9639 10.406 9.0319C10.396 9.4029 10.384 9.8239 10.646 9.9969C10.6802 10.0183 10.7197 10.0298 10.76 10.0299C10.851 10.0299 11.125 10.0299 11.867 8.7569C12.0959 8.34716 12.2947 7.92138 12.462 7.4829C12.477 7.4569 12.521 7.3769 12.573 7.3459C12.6114 7.32634 12.654 7.31639 12.697 7.3169H14.478C14.672 7.3169 14.805 7.3459 14.83 7.4209C14.874 7.5399 14.822 7.9029 14.009 9.0039L13.646 9.4829C12.909 10.4489 12.909 10.4979 13.692 11.2309Z" fill="black" fill-opacity="0.6"/>
</svg>
